<?xml version="1.0" encoding="utf-8"?>
<!-- Generator: Adobe Illustrator 25.2.1, SVG Export Plug-In . SVG Version: 6.00 Build 0)  -->
<svg version="1.1" id="Layer_1" xmlns="http://www.w3.org/2000/svg" xmlns:xlink="http://www.w3.org/1999/xlink" x="0px" y="0px"
	 viewBox="0 0 262.8 107.7" style="enable-background:new 0 0 262.8 107.7;" xml:space="preserve">
<style type="text/css">
	.st0{fill:#FFFFFF;stroke:#000000;stroke-miterlimit:10;}
	.st1{fill:#F2F1A1;stroke:#000000;stroke-miterlimit:10;}
	.st2{fill:#007194;stroke:#000000;stroke-miterlimit:10;}
	.st3{fill:#7AC143;stroke:#000000;stroke-miterlimit:10;}
	.st4{fill:#EE2B78;stroke:#000000;stroke-miterlimit:10;}
	.st5{fill:#9CDAED;stroke:#000000;stroke-miterlimit:10;}
	.st6{fill:#3B54A5;stroke:#000000;stroke-miterlimit:10;}
	.st7{fill:#71BF4A;stroke:#000000;stroke-miterlimit:10;}
	.st8{fill:#721612;stroke:#000000;stroke-miterlimit:10;}
	.st9{font-family:'TimesNewRomanPSMT';}
	.st10{font-size:74.4689px;}
	.st11{font-size:14px;}
	.st12{fill:#ED585F;stroke:#000000;stroke-miterlimit:10;}
	.st13{fill:none;}
	.st14{font-family:'ArialMT';}
	.st15{fill:none;stroke:#000000;stroke-width:0.25;stroke-miterlimit:10;}
	.st16{font-size:124.2278px;}
	.st17{fill:#ED000B;stroke:#000000;stroke-miterlimit:10;}
	.st18{fill:#ED9599;stroke:#000000;stroke-miterlimit:10;}
	.st19{fill:#ED585F;}
	.st20{fill:none;stroke:#000000;stroke-miterlimit:10;}
	.st21{font-size:21px;}
	.st22{font-size:11px;}
</style>
<rect x="2.3" y="3.1" class="st0" width="73.5" height="75.5"/>
<rect x="2.3" y="3.1" class="st1" width="9.4" height="75.5"/>
<rect x="11.6" y="3.1" class="st2" width="9.4" height="75.5"/>
<rect x="21" y="3.1" class="st3" width="9.4" height="75.5"/>
<rect x="30.4" y="3.1" class="st4" width="9.4" height="75.5"/>
<rect x="39.7" y="3.1" class="st5" width="9.4" height="75.5"/>
<rect x="49.1" y="3.1" class="st6" width="9.4" height="75.5"/>
<rect x="58.5" y="3.1" class="st7" width="9.4" height="75.5"/>
<rect x="67.8" y="3.1" class="st8" width="9.4" height="75.5"/>
<text transform="matrix(6.123234e-17 -0.4952 1 3.032271e-17 56.9941 97.63)" class="st9 st10">{</text>
<text transform="matrix(1 0 0 1 33.2929 105.8779)" class="st9 st11">Φ</text>
<rect x="121.7" y="41.5" class="st0" width="139.3" height="10.4"/>
<rect x="121.7" y="41.5" class="st0" width="9.2" height="10.4"/>
<rect x="131" y="41.5" class="st0" width="9.2" height="10.4"/>
<rect x="139.9" y="41.5" class="st0" width="9.2" height="10.4"/>
<rect x="149.1" y="41.5" class="st0" width="9.2" height="10.4"/>
<rect x="158.5" y="41.6" class="st0" width="9.2" height="10.4"/>
<rect x="167.7" y="41.6" class="st12" width="9.2" height="10.4"/>
<rect x="176.6" y="41.6" class="st0" width="9.2" height="10.4"/>
<rect x="185.8" y="41.6" class="st0" width="9.2" height="10.4"/>
<rect x="194.2" y="41.6" class="st0" width="9.2" height="10.4"/>
<rect x="212.3" y="41.6" class="st0" width="9.2" height="10.4"/>
<rect x="221.5" y="41.6" class="st0" width="9.2" height="10.4"/>
<rect x="251.8" y="41.6" class="st0" width="9.2" height="10.4"/>
<rect x="237" y="38.7" class="st13" width="8.5" height="11.7"/>
<text transform="matrix(0.8828 0 0 1 237.0176 48.6207)" class="st14 st11">...</text>
<text transform="matrix(0.8828 0 0 1 237.0176 48.6207)" class="st15 st14 st11">...</text>
<text transform="matrix(6.123234e-17 -0.2969 1 1.817709e-17 216.9258 72.5997)" class="st9 st16">{</text>
<rect x="203.7" y="41.5" class="st17" width="9.2" height="10.4"/>
<rect x="121.7" y="41.5" class="st18" width="9.2" height="10.4"/>
<g>
	<path class="st19" d="M81,46.8c12,0,24,0,36,0"/>
	<g>
		<path class="st20" d="M81,46.8c9.6,0,19.2,0,28.8,0"/>
		<g>
			<polygon points="108.4,51.7 117,46.8 108.4,41.8 			"/>
		</g>
	</g>
</g>
<text transform="matrix(1 0 0 1 79.6115 17.7969)" class="st9 st11">sparse</text>
<text transform="matrix(1 0 0 1 79.6115 34.5969)" class="st9 st11">inference</text>
<path class="st20" d="M318.1,67.5"/>
<g>
	<path class="st19" d="M208.3,0.3c0,13.6,0,27.3,0,40.9"/>
	<g>
		<path class="st20" d="M208.3,0.3c0,10.9,0,21.8,0,32.7"/>
		<g>
			<polygon points="203.3,31.4 208.3,41.2 213.3,31.4 			"/>
		</g>
	</g>
</g>
<text transform="matrix(1 0 0 1 179.22 83.7462)"><tspan x="0" y="0" class="st9 st21">α</tspan><tspan x="11" y="0" class="st9 st22">0</tspan></text>
</svg>
